<?xml version="1.0" standalone="no"?><!DOCTYPE svg PUBLIC "-//W3C//DTD SVG 1.1//EN" "http://www.w3.org/Graphics/SVG/1.1/DTD/svg11.dtd"><svg t="1537412149919" class="icon" style="" viewBox="0 0 1024 1024" version="1.1" xmlns="http://www.w3.org/2000/svg" p-id="2449" xmlns:xlink="http://www.w3.org/1999/xlink" width="16" height="16"><defs><style type="text/css"></style></defs><path d="M748 128H278c-99 0-180 81-180 180v408c0 99 81 180 180 180h470c99 0 180-81 180-180V308c0-99-81-180-180-180z m-470 60h470c66.2 0.3 119.7 53.8 120 120v254.2L695.6 364.3c-5.7-6.5-13.9-10.3-22.5-10.3h-0.1c-8.6 0-16.8 3.7-22.5 10.2l-203.9 232-105.4-105.4c-11.7-11.7-30.7-11.7-42.4 0L158 631.6V308c0.3-66.2 53.8-119.7 120-120z m470 648H278c-66-0.3-119.5-53.6-120-119.6l162-162 106.8 106.8c0.5 0.5 0.9 0.9 1.4 1.3 12.4 10.9 31.4 9.7 42.3-2.7l202.4-230.2 195.1 224V716c-0.3 66.2-53.8 119.7-120 120z" p-id="2450"></path><path d="M320 346m-64 0a64 64 0 1 0 128 0 64 64 0 1 0-128 0Z" p-id="2451"></path></svg>